<svg width="200" height="200" viewBox="0 0 200 200" fill="none" xmlns="http://www.w3.org/2000/svg">
<defs>
<linearGradient id="grad3" x1="0%" y1="0%" x2="100%" y2="100%">
<stop offset="0%" stop-color="#FFFFFF" />
<stop offset="100%" stop-color="#666666" />
</linearGradient>
</defs>
<g stroke="url(#grad3)" stroke-width="1" fill="none">
<!-- Cylinder/Tube shape -->
<ellipse cx="100" cy="100" rx="60" ry="30" transform="rotate(-30, 100, 100) translate(0, -40)" />
<ellipse cx="100" cy="100" rx="60" ry="30" transform="rotate(-30, 100, 100) translate(0, -36)" />
<ellipse cx="100" cy="100" rx="60" ry="30" transform="rotate(-30, 100, 100) translate(0, -32)" />
<ellipse cx="100" cy="100" rx="60" ry="30" transform="rotate(-30, 100, 100) translate(0, -28)" />
<ellipse cx="100" cy="100" rx="60" ry="30" transform="rotate(-30, 100, 100) translate(0, -24)" />
<ellipse cx="100" cy="100" rx="60" ry="30" transform="rotate(-30, 100, 100) translate(0, -20)" />
<ellipse cx="100" cy="100" rx="60" ry="30" transform="rotate(-30, 100, 100) translate(0, -16)" />
<ellipse cx="100" cy="100" rx="60" ry="30" transform="rotate(-30, 100, 100) translate(0, -12)" />
<ellipse cx="100" cy="100" rx="60" ry="30" transform="rotate(-30, 100, 100) translate(0, -8)" />
<ellipse cx="100" cy="100" rx="60" ry="30" transform="rotate(-30, 100, 100) translate(0, -4)" />
<ellipse cx="100" cy="100" rx="60" ry="30" transform="rotate(-30, 100, 100) translate(0, 0)" />
<ellipse cx="100" cy="100" rx="60" ry="30" transform="rotate(-30, 100, 100) translate(0, 4)" />
<ellipse cx="100" cy="100" rx="60" ry="30" transform="rotate(-30, 100, 100) translate(0, 8)" />
<ellipse cx="100" cy="100" rx="60" ry="30" transform="rotate(-30, 100, 100) translate(0, 12)" />
<ellipse cx="100" cy="100" rx="60" ry="30" transform="rotate(-30, 100, 100) translate(0, 16)" />
<ellipse cx="100" cy="100" rx="60" ry="30" transform="rotate(-30, 100, 100) translate(0, 20)" />
<ellipse cx="100" cy="100" rx="60" ry="30" transform="rotate(-30, 100, 100) translate(0, 24)" />
<ellipse cx="100" cy="100" rx="60" ry="30" transform="rotate(-30, 100, 100) translate(0, 28)" />
<ellipse cx="100" cy="100" rx="60" ry="30" transform="rotate(-30, 100, 100) translate(0, 32)" />
<ellipse cx="100" cy="100" rx="60" ry="30" transform="rotate(-30, 100, 100) translate(0, 36)" />
<ellipse cx="100" cy="100" rx="60" ry="30" transform="rotate(-30, 100, 100) translate(0, 40)" />
</g>
</svg>
