<svg width="200" height="200" viewBox="0 0 200 200" fill="none" xmlns="http://www.w3.org/2000/svg">
<defs>
<linearGradient id="grad2" x1="0%" y1="0%" x2="100%" y2="100%">
<stop offset="0%" stop-color="#FFFFFF" />
<stop offset="100%" stop-color="#666666" />
</linearGradient>
</defs>
<g stroke="url(#grad2)" stroke-width="1" fill="none">
<!-- Twisted loop simulation using multiple paths -->
<path d="M50,100 Q100,20 150,100 T50,100" transform="rotate(0, 100, 100)" opacity="0.2"/>
<path d="M50,100 Q100,25 150,100 T50,100" transform="rotate(5, 100, 100)" opacity="0.3"/>
<path d="M50,100 Q100,30 150,100 T50,100" transform="rotate(10, 100, 100)" opacity="0.4"/>
<path d="M50,100 Q100,35 150,100 T50,100" transform="rotate(15, 100, 100)" opacity="0.5"/>
<path d="M50,100 Q100,40 150,100 T50,100" transform="rotate(20, 100, 100)" opacity="0.6"/>
<path d="M50,100 Q100,45 150,100 T50,100" transform="rotate(25, 100, 100)" opacity="0.7"/>
<path d="M50,100 Q100,50 150,100 T50,100" transform="rotate(30, 100, 100)" opacity="0.8"/>
<path d="M50,100 Q100,55 150,100 T50,100" transform="rotate(35, 100, 100)" opacity="0.9"/>
<path d="M50,100 Q100,60 150,100 T50,100" transform="rotate(40, 100, 100)" />
<path d="M50,100 Q100,65 150,100 T50,100" transform="rotate(45, 100, 100)" />
<path d="M50,100 Q100,70 150,100 T50,100" transform="rotate(50, 100, 100)" />
<path d="M50,100 Q100,75 150,100 T50,100" transform="rotate(55, 100, 100)" />
<path d="M50,100 Q100,80 150,100 T50,100" transform="rotate(60, 100, 100)" />
<path d="M50,100 Q100,85 150,100 T50,100" transform="rotate(65, 100, 100)" />
<path d="M50,100 Q100,90 150,100 T50,100" transform="rotate(70, 100, 100)" />
<path d="M50,100 Q100,95 150,100 T50,100" transform="rotate(75, 100, 100)" />
</g>
</svg>
